<?xml version="1.0" standalone="no"?>
<!DOCTYPE svg PUBLIC "-//W3C//DTD SVG 20010904//EN"
 "http://www.w3.org/TR/2001/REC-SVG-20010904/DTD/svg10.dtd">
<svg version="1.0" xmlns="http://www.w3.org/2000/svg"
 width="71.000000pt" height="75.000000pt" viewBox="0 0 71.000000 75.000000"
 preserveAspectRatio="xMidYMid meet">

<g transform="translate(0.000000,75.000000) scale(0.100000,-0.100000)"
fill="#000000" stroke="none">
<path d="M282 738 c-7 -7 -12 -20 -12 -30 0 -11 -17 -24 -47 -38 -26 -11 -55
-28 -66 -37 -11 -11 -32 -16 -55 -15 -35 2 -39 -1 -70 -52 -37 -63 -38 -68
-14 -89 24 -22 22 -169 -3 -197 -20 -22 -16 -39 26 -104 27 -44 33 -48 60 -42
23 4 38 0 63 -19 18 -13 49 -31 69 -40 23 -9 37 -22 37 -33 0 -31 22 -42 85
-42 63 0 85 11 85 42 0 11 17 25 49 39 27 11 57 29 67 40 13 14 25 17 53 13
36 -6 38 -5 66 47 17 30 32 57 33 62 2 4 -4 19 -13 34 -21 32 -27 183 -8 190
26 10 23 42 -9 97 -31 54 -34 56 -70 54 -23 -1 -44 4 -55 15 -11 9 -40 26 -66
37 -30 14 -47 27 -47 38 0 10 -5 23 -12 30 -16 16 -130 16 -146 0z m-23 -347
c17 -55 31 -104 31 -109 0 -23 -21 -22 -32 2 -9 20 -18 26 -45 26 -26 0 -33
-4 -33 -19 0 -23 -18 -37 -31 -24 -8 8 37 182 55 212 15 24 26 7 55 -88z m172
89 c15 -8 19 -21 19 -57 0 -55 -21 -83 -62 -83 -24 0 -28 -4 -28 -27 0 -35
-14 -58 -29 -49 -12 8 -16 208 -4 219 10 11 82 8 104 -3z m119 -4 c0 -8 -4
-18 -10 -21 -14 -8 -13 -148 1 -162 15 -15 2 -33 -24 -33 -21 0 -22 3 -22 115
l0 115 28 0 c17 0 27 -5 27 -14z"/>
<path d="M207 389 c-11 -39 -8 -49 14 -49 16 0 19 4 13 23 -13 44 -21 51 -27
26z"/>
<path d="M360 421 c0 -39 1 -41 31 -41 29 0 30 2 27 38 -3 32 -7 37 -30 40
-27 3 -28 1 -28 -37z"/>
</g>
</svg>
