<?xml version="1.0" standalone="no"?>
<!DOCTYPE svg PUBLIC "-//W3C//DTD SVG 20010904//EN"
 "http://www.w3.org/TR/2001/REC-SVG-20010904/DTD/svg10.dtd">
<svg version="1.0" xmlns="http://www.w3.org/2000/svg"
 width="75.000000pt" height="75.000000pt" viewBox="0 0 75.000000 75.000000"
 preserveAspectRatio="xMidYMid meet">

<g transform="translate(0.000000,75.000000) scale(0.100000,-0.100000)"
fill="#000000" stroke="none">
<path d="M275 737 c-55 -19 -119 -52 -134 -71 -12 -15 10 -16 234 -16 243 0
248 0 231 19 -9 10 -44 31 -78 46 -72 33 -190 43 -253 22z"/>
<path d="M77 602 c-9 -10 -29 -44 -44 -77 -24 -51 -28 -73 -28 -150 0 -78 4
-98 29 -152 15 -34 37 -70 47 -79 19 -17 19 -12 19 229 0 136 -2 247 -3 247
-2 0 -11 -8 -20 -18z"/>
<path d="M651 375 l0 -250 21 25 c11 14 33 50 47 80 21 46 26 69 26 145 0 77
-4 98 -26 145 -14 30 -36 66 -47 80 l-21 25 0 -250z"/>
<path d="M170 605 c0 -3 46 -97 102 -210 l103 -205 102 202 c56 112 102 206
102 211 1 4 -91 7 -204 7 -113 0 -205 -2 -205 -5z"/>
<path d="M141 353 l-1 -213 105 0 c58 0 105 3 104 8 0 4 -47 99 -104 212
l-104 205 0 -212z"/>
<path d="M502 355 c-56 -113 -102 -207 -102 -210 0 -3 47 -5 105 -5 l105 0 0
210 c0 116 -1 210 -3 210 -1 0 -48 -92 -105 -205z"/>
<path d="M150 78 c14 -11 50 -33 80 -47 46 -21 69 -26 145 -26 77 0 98 4 145
26 30 14 66 36 80 47 l25 21 -250 0 -250 0 25 -21z"/>
</g>
</svg>
